<svg id="svg" xmlns="http://www.w3.org/2000/svg" xmlns:xlink="http://www.w3.org/1999/xlink" width="400" height="400" viewBox="0, 0, 400,400"><g id="svgg"><path id="path0" d="M189.300 31.016 C 105.456 36.551,38.768 101.674,31.311 185.300 C 30.717 191.953,30.542 199.570,30.833 206.000 C 31.451 219.642,30.999 222.992,27.672 229.433 C 24.002 236.539,20.479 239.463,7.816 245.915 L 0.000 249.897 0.000 267.270 C 0.000 283.732,0.018 284.636,0.350 284.511 C 0.542 284.439,10.870 279.198,23.300 272.864 C 51.510 258.490,314.508 124.512,338.700 112.191 C 348.490 107.205,366.265 98.150,378.200 92.070 L 399.900 81.014 399.951 63.607 C 399.979 54.033,399.962 46.200,399.912 46.200 C 399.862 46.200,398.264 47.001,396.361 47.980 C 390.546 50.972,337.773 77.870,278.800 107.900 C 266.755 114.034,249.790 122.674,241.100 127.101 C 232.410 131.528,208.155 143.881,187.200 154.551 C 166.245 165.221,129.718 183.823,106.028 195.887 C 82.339 207.952,62.930 217.795,62.898 217.761 C 62.867 217.728,62.700 216.395,62.528 214.800 C 54.579 140.944,107.013 73.582,180.600 63.112 C 189.272 61.879,204.243 61.419,211.700 62.158 C 231.379 64.107,249.193 69.346,264.894 77.803 C 266.320 78.571,267.625 79.196,267.794 79.190 C 268.283 79.175,299.300 63.261,299.300 63.026 C 299.300 62.509,290.388 56.643,284.300 53.152 C 255.689 36.748,221.864 28.867,189.300 31.016 M288.900 171.815 C 227.960 202.839,157.175 238.876,131.600 251.896 C 106.025 264.916,73.085 281.697,58.400 289.186 C 43.715 296.676,24.570 306.425,15.855 310.852 L 0.010 318.900 0.005 336.335 L -0.000 353.769 2.850 352.306 C 4.417 351.502,15.420 345.895,27.300 339.846 C 55.559 325.459,287.372 207.369,315.400 193.083 L 337.100 182.021 337.233 182.561 C 339.189 190.477,338.501 212.269,335.866 225.900 C 318.202 317.254,216.449 366.006,135.012 322.134 L 132.187 320.613 116.444 328.633 C 107.785 333.043,100.631 336.714,100.546 336.790 C 100.461 336.866,101.766 337.879,103.446 339.041 C 177.362 390.160,277.904 374.929,333.424 304.200 C 357.911 273.005,370.957 232.631,369.162 193.600 C 368.798 185.686,368.832 181.349,369.275 179.107 C 370.775 171.512,375.029 164.692,381.100 160.147 C 383.171 158.597,384.274 157.986,393.350 153.364 L 400.000 149.977 400.000 132.689 C 400.000 123.180,399.933 115.401,399.850 115.403 C 399.768 115.405,349.840 140.790,288.900 171.815 " stroke="none" fill="#000000" fill-rule="evenodd"></path></g></svg>