<svg xmlns="http://www.w3.org/2000/svg" xmlns:xlink="http://www.w3.org/1999/xlink" width="350" zoomAndPan="magnify" viewBox="0 0 262.5 112.499997" height="150" preserveAspectRatio="xMidYMid meet" version="1.0"><defs><g/><clipPath id="1e333e4d09"><path d="M 0.332031 77 L 57 77 L 57 84 L 0.332031 84 Z M 0.332031 77 " clip-rule="nonzero"/></clipPath><clipPath id="9bb39d841e"><path d="M 205 28 L 261.671875 28 L 261.671875 36 L 205 36 Z M 205 28 " clip-rule="nonzero"/></clipPath></defs><g clip-path="url(#1e333e4d09)"><path stroke-linecap="butt" transform="matrix(0.584336, 0, 0, 0.584336, 3.763388, 77.443872)" fill="none" stroke-linejoin="miter" d="M -0.00285688 5.002795 L 84.434532 5.002795 " stroke="#292929" stroke-width="10" stroke-opacity="1" stroke-miterlimit="4"/></g><path stroke-linecap="butt" transform="matrix(0, 0.584336, -0.584336, 0, 9.603756, 33.35087)" fill="none" stroke-linejoin="miter" d="M 0.0011859 4.997399 L 82.46652 4.997399 " stroke="#292929" stroke-width="10" stroke-opacity="1" stroke-miterlimit="4"/><g fill="#000000" fill-opacity="1"><g transform="translate(11.027491, 68.038953)"><g><path d="M 2.296875 0 L 2.296875 -19.640625 L 9.078125 -19.640625 L 9.078125 -17.578125 L 9.15625 -17.578125 C 10.914062 -19.335938 12.789062 -20.21875 14.78125 -20.21875 C 16.207031 -20.21875 17.546875 -19.921875 18.796875 -19.328125 C 20.046875 -18.742188 20.988281 -17.835938 21.625 -16.609375 C 23.613281 -19.015625 25.785156 -20.21875 28.140625 -20.21875 C 30.234375 -20.21875 32.03125 -19.628906 33.53125 -18.453125 C 35.039062 -17.273438 35.796875 -15.4375 35.796875 -12.9375 L 35.796875 0 L 29.015625 0 L 29.015625 -11.09375 C 29.015625 -12.144531 28.726562 -13.019531 28.15625 -13.71875 C 27.582031 -14.425781 26.722656 -14.78125 25.578125 -14.78125 C 24.578125 -14.78125 23.816406 -14.476562 23.296875 -13.875 C 22.773438 -13.28125 22.488281 -12.5625 22.4375 -11.71875 L 22.4375 0 L 15.65625 0 L 15.65625 -11.09375 C 15.65625 -12.144531 15.367188 -13.019531 14.796875 -13.71875 C 14.222656 -14.425781 13.363281 -14.78125 12.21875 -14.78125 C 11.164062 -14.78125 10.378906 -14.453125 9.859375 -13.796875 C 9.335938 -13.148438 9.078125 -12.378906 9.078125 -11.484375 L 9.078125 0 Z M 2.296875 0 "/></g></g></g><g fill="#000000" fill-opacity="1"><g transform="translate(45.457723, 68.038953)"><g><path d="M 22.171875 -8.875 L 7.921875 -8.875 C 7.921875 -7.5 8.367188 -6.476562 9.265625 -5.8125 C 10.160156 -5.15625 11.128906 -4.828125 12.171875 -4.828125 C 13.265625 -4.828125 14.128906 -4.972656 14.765625 -5.265625 C 15.410156 -5.554688 16.140625 -6.132812 16.953125 -7 L 21.859375 -4.5625 C 19.816406 -1.132812 16.421875 0.578125 11.671875 0.578125 C 8.710938 0.578125 6.171875 -0.4375 4.046875 -2.46875 C 1.929688 -4.5 0.875 -6.941406 0.875 -9.796875 C 0.875 -12.660156 1.929688 -15.113281 4.046875 -17.15625 C 6.171875 -19.195312 8.710938 -20.21875 11.671875 -20.21875 C 14.785156 -20.21875 17.316406 -19.316406 19.265625 -17.515625 C 21.222656 -15.710938 22.203125 -13.140625 22.203125 -9.796875 C 22.203125 -9.335938 22.191406 -9.03125 22.171875 -8.875 Z M 8.109375 -12.625 L 15.578125 -12.625 C 15.421875 -13.644531 15.015625 -14.429688 14.359375 -14.984375 C 13.710938 -15.535156 12.878906 -15.8125 11.859375 -15.8125 C 10.742188 -15.8125 9.851562 -15.515625 9.1875 -14.921875 C 8.519531 -14.335938 8.160156 -13.570312 8.109375 -12.625 Z M 8.109375 -12.625 "/></g></g></g><g fill="#000000" fill-opacity="1"><g transform="translate(65.273422, 68.038953)"><g><path d="M 3.4375 -19.640625 L 3.4375 -26.953125 L 10.21875 -26.953125 L 10.21875 -19.640625 L 14.359375 -19.640625 L 14.359375 -14.46875 L 10.21875 -14.46875 L 10.21875 -8.234375 C 10.21875 -6.421875 10.726562 -5.515625 11.75 -5.515625 C 12.007812 -5.515625 12.28125 -5.5625 12.5625 -5.65625 C 12.84375 -5.757812 13.054688 -5.863281 13.203125 -5.96875 L 13.4375 -6.125 L 15.125 -0.65625 C 13.664062 0.164062 12.003906 0.578125 10.140625 0.578125 C 8.867188 0.578125 7.769531 0.351562 6.84375 -0.09375 C 5.925781 -0.539062 5.234375 -1.140625 4.765625 -1.890625 C 4.296875 -2.648438 3.957031 -3.441406 3.75 -4.265625 C 3.539062 -5.097656 3.4375 -5.984375 3.4375 -6.921875 L 3.4375 -14.46875 L 0.609375 -14.46875 L 0.609375 -19.640625 Z M 3.4375 -19.640625 "/></g></g></g><g fill="#000000" fill-opacity="1"><g transform="translate(77.131488, 68.038953)"><g><path d="M 3.625 -2.421875 C 1.789062 -4.429688 0.875 -6.890625 0.875 -9.796875 C 0.875 -12.703125 1.789062 -15.164062 3.625 -17.1875 C 5.46875 -19.207031 7.804688 -20.21875 10.640625 -20.21875 C 13.242188 -20.21875 15.390625 -19.398438 17.078125 -17.765625 L 17.078125 -19.640625 L 23.84375 -19.640625 L 23.84375 0 L 17.15625 0 L 17.15625 -2.21875 L 17.078125 -2.21875 C 15.390625 -0.351562 13.242188 0.578125 10.640625 0.578125 C 7.804688 0.578125 5.46875 -0.421875 3.625 -2.421875 Z M 9.390625 -13.125 C 8.515625 -12.257812 8.078125 -11.148438 8.078125 -9.796875 C 8.078125 -8.441406 8.5 -7.335938 9.34375 -6.484375 C 10.1875 -5.628906 11.296875 -5.203125 12.671875 -5.203125 C 13.992188 -5.203125 15.082031 -5.632812 15.9375 -6.5 C 16.789062 -7.375 17.21875 -8.472656 17.21875 -9.796875 C 17.21875 -11.148438 16.773438 -12.257812 15.890625 -13.125 C 15.015625 -14 13.941406 -14.4375 12.671875 -14.4375 C 11.367188 -14.4375 10.273438 -14 9.390625 -13.125 Z M 9.390625 -13.125 "/></g></g></g><g fill="#000000" fill-opacity="1"><g transform="translate(100.007829, 68.038953)"><g><path d="M 10.828125 -20.21875 C 11.953125 -20.21875 13.0625 -20.085938 14.15625 -19.828125 C 15.257812 -19.578125 16.078125 -19.320312 16.609375 -19.0625 L 17.421875 -18.6875 L 15.203125 -14.234375 C 13.671875 -15.054688 12.210938 -15.46875 10.828125 -15.46875 C 10.066406 -15.46875 9.523438 -15.382812 9.203125 -15.21875 C 8.890625 -15.050781 8.734375 -14.738281 8.734375 -14.28125 C 8.734375 -14.175781 8.742188 -14.070312 8.765625 -13.96875 C 8.785156 -13.863281 8.832031 -13.765625 8.90625 -13.671875 C 8.988281 -13.585938 9.0625 -13.515625 9.125 -13.453125 C 9.1875 -13.390625 9.296875 -13.316406 9.453125 -13.234375 C 9.609375 -13.160156 9.726562 -13.101562 9.8125 -13.0625 C 9.90625 -13.03125 10.050781 -12.972656 10.25 -12.890625 C 10.457031 -12.816406 10.613281 -12.757812 10.71875 -12.71875 C 10.820312 -12.6875 10.992188 -12.628906 11.234375 -12.546875 C 11.472656 -12.472656 11.660156 -12.425781 11.796875 -12.40625 C 12.585938 -12.175781 13.273438 -11.921875 13.859375 -11.640625 C 14.441406 -11.359375 15.054688 -10.972656 15.703125 -10.484375 C 16.359375 -10.003906 16.863281 -9.394531 17.21875 -8.65625 C 17.582031 -7.914062 17.765625 -7.070312 17.765625 -6.125 C 17.765625 -1.65625 14.660156 0.578125 8.453125 0.578125 C 7.054688 0.578125 5.722656 0.359375 4.453125 -0.078125 C 3.191406 -0.515625 2.28125 -0.945312 1.71875 -1.375 L 0.875 -2.0625 L 3.640625 -6.703125 C 3.835938 -6.523438 4.101562 -6.3125 4.4375 -6.0625 C 4.769531 -5.820312 5.367188 -5.488281 6.234375 -5.0625 C 7.109375 -4.644531 7.863281 -4.4375 8.5 -4.4375 C 9.90625 -4.4375 10.609375 -4.910156 10.609375 -5.859375 C 10.609375 -6.285156 10.425781 -6.617188 10.0625 -6.859375 C 9.707031 -7.109375 9.101562 -7.382812 8.25 -7.6875 C 7.394531 -8 6.722656 -8.28125 6.234375 -8.53125 C 5.015625 -9.175781 4.046875 -9.898438 3.328125 -10.703125 C 2.617188 -11.503906 2.265625 -12.566406 2.265625 -13.890625 C 2.265625 -15.878906 3.035156 -17.429688 4.578125 -18.546875 C 6.117188 -19.660156 8.203125 -20.21875 10.828125 -20.21875 Z M 10.828125 -20.21875 "/></g></g></g><g fill="#000000" fill-opacity="1"><g transform="translate(115.576899, 68.038953)"><g><path d="M 3.4375 -19.640625 L 3.4375 -26.953125 L 10.21875 -26.953125 L 10.21875 -19.640625 L 14.359375 -19.640625 L 14.359375 -14.46875 L 10.21875 -14.46875 L 10.21875 -8.234375 C 10.21875 -6.421875 10.726562 -5.515625 11.75 -5.515625 C 12.007812 -5.515625 12.28125 -5.5625 12.5625 -5.65625 C 12.84375 -5.757812 13.054688 -5.863281 13.203125 -5.96875 L 13.4375 -6.125 L 15.125 -0.65625 C 13.664062 0.164062 12.003906 0.578125 10.140625 0.578125 C 8.867188 0.578125 7.769531 0.351562 6.84375 -0.09375 C 5.925781 -0.539062 5.234375 -1.140625 4.765625 -1.890625 C 4.296875 -2.648438 3.957031 -3.441406 3.75 -4.265625 C 3.539062 -5.097656 3.4375 -5.984375 3.4375 -6.921875 L 3.4375 -14.46875 L 0.609375 -14.46875 L 0.609375 -19.640625 Z M 3.4375 -19.640625 "/></g></g></g><g fill="#000000" fill-opacity="1"><g transform="translate(127.434959, 68.038953)"><g><path d="M 22.171875 -8.875 L 7.921875 -8.875 C 7.921875 -7.5 8.367188 -6.476562 9.265625 -5.8125 C 10.160156 -5.15625 11.128906 -4.828125 12.171875 -4.828125 C 13.265625 -4.828125 14.128906 -4.972656 14.765625 -5.265625 C 15.410156 -5.554688 16.140625 -6.132812 16.953125 -7 L 21.859375 -4.5625 C 19.816406 -1.132812 16.421875 0.578125 11.671875 0.578125 C 8.710938 0.578125 6.171875 -0.4375 4.046875 -2.46875 C 1.929688 -4.5 0.875 -6.941406 0.875 -9.796875 C 0.875 -12.660156 1.929688 -15.113281 4.046875 -17.15625 C 6.171875 -19.195312 8.710938 -20.21875 11.671875 -20.21875 C 14.785156 -20.21875 17.316406 -19.316406 19.265625 -17.515625 C 21.222656 -15.710938 22.203125 -13.140625 22.203125 -9.796875 C 22.203125 -9.335938 22.191406 -9.03125 22.171875 -8.875 Z M 8.109375 -12.625 L 15.578125 -12.625 C 15.421875 -13.644531 15.015625 -14.429688 14.359375 -14.984375 C 13.710938 -15.535156 12.878906 -15.8125 11.859375 -15.8125 C 10.742188 -15.8125 9.851562 -15.515625 9.1875 -14.921875 C 8.519531 -14.335938 8.160156 -13.570312 8.109375 -12.625 Z M 8.109375 -12.625 "/></g></g></g><g fill="#000000" fill-opacity="1"><g transform="translate(147.250654, 68.038953)"><g><path d="M 2.296875 0 L 2.296875 -32.921875 L 9.078125 -32.921875 L 9.078125 0 Z M 2.296875 0 "/></g></g></g><g fill="#000000" fill-opacity="1"><g transform="translate(155.359433, 68.038953)"><g><path d="M 2.296875 0 L 2.296875 -32.921875 L 9.078125 -32.921875 L 9.078125 0 Z M 2.296875 0 "/></g></g></g><g fill="#000000" fill-opacity="1"><g transform="translate(163.468213, 68.038953)"><g><path d="M 3.625 -2.421875 C 1.789062 -4.429688 0.875 -6.890625 0.875 -9.796875 C 0.875 -12.703125 1.789062 -15.164062 3.625 -17.1875 C 5.46875 -19.207031 7.804688 -20.21875 10.640625 -20.21875 C 13.242188 -20.21875 15.390625 -19.398438 17.078125 -17.765625 L 17.078125 -19.640625 L 23.84375 -19.640625 L 23.84375 0 L 17.15625 0 L 17.15625 -2.21875 L 17.078125 -2.21875 C 15.390625 -0.351562 13.242188 0.578125 10.640625 0.578125 C 7.804688 0.578125 5.46875 -0.421875 3.625 -2.421875 Z M 9.390625 -13.125 C 8.515625 -12.257812 8.078125 -11.148438 8.078125 -9.796875 C 8.078125 -8.441406 8.5 -7.335938 9.34375 -6.484375 C 10.1875 -5.628906 11.296875 -5.203125 12.671875 -5.203125 C 13.992188 -5.203125 15.082031 -5.632812 15.9375 -6.5 C 16.789062 -7.375 17.21875 -8.472656 17.21875 -9.796875 C 17.21875 -11.148438 16.773438 -12.257812 15.890625 -13.125 C 15.015625 -14 13.941406 -14.4375 12.671875 -14.4375 C 11.367188 -14.4375 10.273438 -14 9.390625 -13.125 Z M 9.390625 -13.125 "/></g></g></g><g fill="#000000" fill-opacity="1"><g transform="translate(186.344549, 68.038953)"><g><path d="M 2.296875 0 L 2.296875 -19.640625 L 9.078125 -19.640625 L 9.078125 -16.8125 L 9.15625 -16.8125 C 9.195312 -16.90625 9.273438 -17.03125 9.390625 -17.1875 C 9.503906 -17.34375 9.753906 -17.609375 10.140625 -17.984375 C 10.523438 -18.367188 10.929688 -18.710938 11.359375 -19.015625 C 11.796875 -19.328125 12.359375 -19.601562 13.046875 -19.84375 C 13.742188 -20.09375 14.445312 -20.21875 15.15625 -20.21875 C 15.894531 -20.21875 16.617188 -20.113281 17.328125 -19.90625 C 18.046875 -19.695312 18.570312 -19.492188 18.90625 -19.296875 L 19.453125 -18.984375 L 16.609375 -13.25 C 15.765625 -13.957031 14.59375 -14.3125 13.09375 -14.3125 C 12.269531 -14.3125 11.566406 -14.132812 10.984375 -13.78125 C 10.398438 -13.425781 9.984375 -12.992188 9.734375 -12.484375 C 9.492188 -11.972656 9.320312 -11.535156 9.21875 -11.171875 C 9.125 -10.816406 9.078125 -10.535156 9.078125 -10.328125 L 9.078125 0 Z M 2.296875 0 "/></g></g></g><g fill="#000000" fill-opacity="1"><g transform="translate(202.143165, 68.038953)"><g><path d="M 6.65625 -8.1875 C 7.882812 -8.1875 8.925781 -7.757812 9.78125 -6.90625 C 10.632812 -6.050781 11.0625 -5.015625 11.0625 -3.796875 C 11.0625 -2.585938 10.632812 -1.554688 9.78125 -0.703125 C 8.925781 0.148438 7.882812 0.578125 6.65625 0.578125 C 5.457031 0.578125 4.429688 0.148438 3.578125 -0.703125 C 2.722656 -1.554688 2.296875 -2.585938 2.296875 -3.796875 C 2.296875 -5.015625 2.722656 -6.050781 3.578125 -6.90625 C 4.429688 -7.757812 5.457031 -8.1875 6.65625 -8.1875 Z M 6.65625 -8.1875 "/></g></g></g><g fill="#000000" fill-opacity="1"><g transform="translate(212.241358, 68.038953)"><g><path d="M 2.953125 -30.578125 C 3.742188 -31.367188 4.6875 -31.765625 5.78125 -31.765625 C 6.875 -31.765625 7.816406 -31.367188 8.609375 -30.578125 C 9.398438 -29.796875 9.796875 -28.851562 9.796875 -27.75 C 9.796875 -26.65625 9.398438 -25.710938 8.609375 -24.921875 C 7.816406 -24.128906 6.875 -23.734375 5.78125 -23.734375 C 4.6875 -23.734375 3.742188 -24.128906 2.953125 -24.921875 C 2.160156 -25.710938 1.765625 -26.65625 1.765625 -27.75 C 1.765625 -28.851562 2.160156 -29.796875 2.953125 -30.578125 Z M 2.296875 -19.640625 L 2.296875 0 L 9.078125 0 L 9.078125 -19.640625 Z M 2.296875 -19.640625 "/></g></g></g><g fill="#000000" fill-opacity="1"><g transform="translate(220.541433, 68.038953)"><g><path d="M 4.140625 -2.328125 C 1.960938 -4.273438 0.875 -6.765625 0.875 -9.796875 C 0.875 -12.835938 2.007812 -15.332031 4.28125 -17.28125 C 6.550781 -19.238281 9.359375 -20.21875 12.703125 -20.21875 C 15.992188 -20.21875 18.769531 -19.234375 21.03125 -17.265625 C 23.289062 -15.296875 24.421875 -12.804688 24.421875 -9.796875 C 24.421875 -6.785156 23.316406 -4.300781 21.109375 -2.34375 C 18.898438 -0.394531 16.097656 0.578125 12.703125 0.578125 C 9.179688 0.578125 6.328125 -0.390625 4.140625 -2.328125 Z M 9.390625 -13.125 C 8.515625 -12.257812 8.078125 -11.148438 8.078125 -9.796875 C 8.078125 -8.441406 8.5 -7.335938 9.34375 -6.484375 C 10.1875 -5.628906 11.296875 -5.203125 12.671875 -5.203125 C 13.992188 -5.203125 15.082031 -5.632812 15.9375 -6.5 C 16.789062 -7.375 17.21875 -8.472656 17.21875 -9.796875 C 17.21875 -11.148438 16.773438 -12.257812 15.890625 -13.125 C 15.015625 -14 13.941406 -14.4375 12.671875 -14.4375 C 11.367188 -14.4375 10.273438 -14 9.390625 -13.125 Z M 9.390625 -13.125 "/></g></g></g><g clip-path="url(#9bb39d841e)"><path stroke-linecap="butt" transform="matrix(-0.584336, 0, 0, -0.584336, 257.940082, 35.142668)" fill="none" stroke-linejoin="miter" d="M -0.00226683 5.498511 L 84.435122 5.498511 " stroke="#292929" stroke-width="11" stroke-opacity="1" stroke-miterlimit="4"/></g><path stroke-linecap="butt" transform="matrix(0, -0.584336, 0.584336, 0, 251.808107, 78.943507)" fill="none" stroke-linejoin="miter" d="M -0.00308959 5.502532 L 82.462244 5.502532 " stroke="#292929" stroke-width="11" stroke-opacity="1" stroke-miterlimit="4"/></svg>